<svg width="15" height="16" viewBox="0 0 15 16" fill="none" xmlns="http://www.w3.org/2000/svg">
<path d="M14.2197 11.6731L14.2195 11.673C14.1828 11.6358 14.1429 11.5963 14.1004 11.5543C13.7912 11.2489 13.3429 10.8059 12.9721 10.0985C12.5477 9.28892 12.2352 8.1629 12.2352 6.5C12.2352 4.34384 10.6311 2.57951 8.39524 2.14194L7.99126 2.06289V1.65125V1C7.99126 0.751349 7.76832 0.5 7.43044 0.5C7.09256 0.5 6.86961 0.751349 6.86961 1V1.65125V2.06289L6.46564 2.14194C4.22973 2.57951 2.62565 4.34384 2.62565 6.5C2.62565 8.1629 2.31319 9.28892 1.88881 10.0985C1.51796 10.8059 1.06964 11.2489 0.760525 11.5543C0.718 11.5963 0.678105 11.6357 0.641412 11.6729L14.2197 11.6731ZM14.2197 11.6731C14.3252 11.7798 14.3616 11.8932 14.3609 11.9965L14.3609 11.9968M14.2197 11.6731L14.3609 11.9968M14.3609 11.9968C14.3593 12.236 14.1538 12.5 13.7961 12.5H1.06483C0.707375 12.5 0.501743 12.2362 0.500011 11.9965M14.3609 11.9968L0.500011 11.9965M0.50001 11.9964C0.499295 11.8934 0.535544 11.7801 0.641336 11.6729L0.50001 11.9964ZM0.50001 11.9964C0.50001 11.9965 0.50001 11.9965 0.500011 11.9965M0.50001 11.9964L0.500011 11.9965M1.85067 11.1864L1.19546 12H2.24009H12.6208H13.6657L13.0102 11.1863C12.3816 10.4061 11.6525 9.07524 11.6437 6.5452C11.6448 6.53243 11.6456 6.51715 11.6456 6.5C11.6456 4.26304 9.73004 2.5 7.43044 2.5C5.13084 2.5 3.21523 4.26304 3.21523 6.5C3.21523 6.51715 3.21607 6.53243 3.21715 6.5452C3.2084 9.0749 2.4793 10.4058 1.85067 11.1864ZM11.6378 6.59171L11.6383 6.58866C11.6379 6.591 11.6376 6.59289 11.6378 6.59171ZM8.95899 14.5C8.73945 15.071 8.15421 15.5 7.43044 15.5C6.70667 15.5 6.12143 15.071 5.90189 14.5H8.95899ZM14.8609 12C14.8625 11.7641 14.7743 11.5228 14.5752 11.3216L1.06483 13H13.7961C14.4303 13 14.8575 12.5125 14.8609 12Z" fill="#FFC804" stroke="#6A7B83"/>
</svg>
