<svg width="14" height="13" viewBox="0 0 14 13" fill="none" xmlns="http://www.w3.org/2000/svg">
<path d="M7 0C3.13359 0 0 2.5457 0 5.6875C0 7.04375 0.585156 8.28516 1.55859 9.26133C1.2168 10.6395 0.0738281 11.8672 0.0601563 11.8809C0 11.9438 -0.0164062 12.0367 0.0191406 12.1188C0.0546875 12.2008 0.13125 12.25 0.21875 12.25C2.03164 12.25 3.39063 11.3805 4.06328 10.8445C4.95742 11.1809 5.95 11.375 7 11.375C10.8664 11.375 14 8.8293 14 5.6875C14 2.5457 10.8664 0 7 0ZM3.5 6.5625C3.01602 6.5625 2.625 6.17148 2.625 5.6875C2.625 5.20352 3.01602 4.8125 3.5 4.8125C3.98398 4.8125 4.375 5.20352 4.375 5.6875C4.375 6.17148 3.98398 6.5625 3.5 6.5625ZM7 6.5625C6.51602 6.5625 6.125 6.17148 6.125 5.6875C6.125 5.20352 6.51602 4.8125 7 4.8125C7.48398 4.8125 7.875 5.20352 7.875 5.6875C7.875 6.17148 7.48398 6.5625 7 6.5625ZM10.5 6.5625C10.016 6.5625 9.625 6.17148 9.625 5.6875C9.625 5.20352 10.016 4.8125 10.5 4.8125C10.984 4.8125 11.375 5.20352 11.375 5.6875C11.375 6.17148 10.984 6.5625 10.5 6.5625Z" fill="#B4BDC1"/>
</svg>
