<svg width="19" height="14" viewBox="0 0 19 14" fill="none" xmlns="http://www.w3.org/2000/svg">
<path d="M16.7432 11.0688C17.5596 10.2219 18.0494 9.15938 18.0494 8C18.0494 5.5 15.7783 3.43438 12.8185 3.06563C11.8833 1.26563 9.68645 0 7.12442 0C3.71332 0 0.949419 2.2375 0.949419 5C0.949419 6.15625 1.43926 7.21875 2.25567 8.06875C1.80145 9.02813 1.14832 9.77188 1.13645 9.78438C0.949419 9.99375 0.895981 10.3 1.00582 10.5656C1.1127 10.8313 1.36207 11.0031 1.6352 11.0031C3.22348 11.0031 4.50598 10.3719 5.35207 9.79062C5.6252 9.85625 5.90723 9.90625 6.1952 9.94375C7.12739 11.7375 9.31536 13 11.8744 13C12.4919 13 13.0857 12.925 13.6497 12.7875C14.4958 13.3656 15.7754 14 17.3666 14C17.6397 14 17.8861 13.8281 17.996 13.5625C18.1029 13.2969 18.0524 12.9906 17.8654 12.7812C17.8535 12.7719 17.1974 12.0281 16.7432 11.0688ZM5.08192 8.18437L4.57426 8.53125C4.15567 8.81563 3.72817 9.04062 3.29473 9.2C3.37489 9.05312 3.45504 8.89688 3.53223 8.7375L3.99239 7.76562L3.25614 7C2.85536 6.58125 2.37442 5.89687 2.37442 5C2.37442 3.10313 4.55051 1.5 7.12442 1.5C9.69832 1.5 11.8744 3.10313 11.8744 5C11.8744 6.89687 9.69832 8.5 7.12442 8.5C6.63457 8.5 6.14473 8.44063 5.66973 8.325L5.08192 8.18437ZM15.7427 10L15.0094 10.7625L15.4696 11.7344C15.5468 11.8938 15.6269 12.05 15.7071 12.1969C15.2736 12.0375 14.8461 11.8125 14.4275 11.5281L13.9199 11.1812L13.3291 11.325C12.8541 11.4406 12.3643 11.5 11.8744 11.5C10.2713 11.5 8.84036 10.8719 7.97645 9.94687C10.9838 9.60938 13.2994 7.52812 13.2994 5C13.2994 4.89375 13.2875 4.79063 13.2786 4.6875C15.1905 5.14062 16.6244 6.4625 16.6244 8C16.6244 8.89688 16.1435 9.58125 15.7427 10Z" fill="#6A7B83"/>
</svg>
